<?xml version="1.0" encoding="UTF-8"?>
<svg id="Calque_1" xmlns="http://www.w3.org/2000/svg" version="1.1" viewBox="0 0 311.92 259.44">
  <!-- Generator: Adobe Illustrator 29.6.0, SVG Export Plug-In . SVG Version: 2.1.1 Build 207)  -->
  <defs>
    <style>
      .st0 {
        fill: #3582c3;
      }

      .st1 {
        fill: #183963;
      }

      .st2 {
        fill: #3381c4;
      }
    </style>
  </defs>
  <g>
    <polygon class="st2" points="99.18 25.68 126.51 53.76 126.93 105.26 154.93 132.1 154.93 158.51 126.51 136.43 99.18 159.18 99.18 25.68"/>
    <path class="st2" d="M154.93,216.18v-50.92l-28.42-22.53v75.06c8.96-.67,18.43-1.22,28.42-1.62Z"/>
    <path class="st1" d="M99.4,164.96l-.22-139.28-36.44,38.61.36,43.72-15.92,15v100.74s-15.58,4.93-24.22,10.01c0,0,29.36-8.64,81.84-14.04,1.03-.11,2.05-.21,3.06-.31,5.94-.59,12.16-1.13,18.66-1.61v-75.06l-27.11,22.22ZM54.18,221.74c-1.2.32-2.35.63-3.44.95l.11-79.04,3.34-3.14v81.24ZM62.84,219.58c-1.45.34-2.86.68-4.22,1.02l.13-84.49,4.09-3.85v87.32ZM76.04,216.62c-1.39.3-2.78.6-4.14.9l.13-136.97,4.01-4.25v140.32ZM87.68,214.2c-1.69.34-3.38.69-5.08,1.04l.16-146.05,4.92-5.21v150.22Z"/>
  </g>
  <path class="st1" d="M210.8,180.99c0-14.27-13.08-15.55-13.08-15.55h-31.49v50.75h11.46v-17.72h10.74l9.62,17.72h12.75l-10.66-18.52s10.66-2.4,10.66-16.67ZM194.09,188.69h-16.55v-13.79h15.87s6.15.08,6.15,6.57-5.47,7.21-5.47,7.21Z"/>
  <path class="st0" d="M211.56,181.95h11.22s.76-6.77,7.01-7.05,6.57,4.41,6.57,5.89-.24,3.77-2,5.81-23.09,20.72-23.09,20.72v8.86h31.47l6.17-10.06-20.32-.04,13.39-12.27s5.81-4.77,5.65-13.67c-.16-8.9-5.13-15.23-17.54-15.27-12.41-.04-18.74,7.17-18.54,17.08Z"/>
  <path class="st1" d="M248.92,206.12h23.37s5.21-.48,5.21-4.57-4.53-4.25-15.99-6.89c-11.46-2.65-13.27-9.34-13.27-14.63s4.21-14.55,12.99-14.63c8.78-.08,26.66,0,26.66,0v10.34h-24.89s-3.05.36-3.05,4.37,5.29,4.53,12.11,5.63c6.81,1.1,16.92,2.82,16.92,14.69s-8.86,15.75-14.75,15.75-31.47,0-31.47,0l6.17-10.06Z"/>
</svg>