<?xml version="1.0" encoding="UTF-8"?>
<svg id="Calque_1" xmlns="http://www.w3.org/2000/svg" version="1.1" viewBox="0 0 595.28 436.78">
  <!-- Generator: Adobe Illustrator 29.6.0, SVG Export Plug-In . SVG Version: 2.1.1 Build 207)  -->
  <defs>
    <style>
      .st0 {
        fill: #3582c3;
      }

      .st1 {
        fill: #183963;
      }

      .st2 {
        fill: #3381c4;
      }
    </style>
  </defs>
  <g>
    <g>
      <polygon class="st2" points="122.13 57.21 149.46 85.29 149.88 136.79 177.88 163.63 177.88 190.04 149.46 167.96 122.13 190.71 122.13 57.21"/>
      <path class="st2" d="M177.88,247.71v-50.92l-28.42-22.53v75.06c8.96-.67,18.43-1.22,28.42-1.62Z"/>
      <path class="st1" d="M122.35,196.49l-.22-139.28-36.44,38.61.36,43.72-15.92,15v100.74s-15.58,4.93-24.22,10.01c0,0,29.36-8.64,81.84-14.04,1.03-.11,2.05-.21,3.06-.31,5.94-.59,12.16-1.13,18.66-1.61v-75.06l-27.11,22.22ZM77.13,253.27c-1.2.32-2.35.63-3.44.95l.11-79.04,3.34-3.14v81.24ZM85.8,251.11c-1.45.34-2.86.68-4.22,1.02l.13-84.49,4.09-3.85v87.32ZM99,248.15c-1.39.3-2.78.6-4.14.9l.13-136.97,4.01-4.25v140.32ZM110.63,245.73c-1.69.34-3.38.69-5.08,1.04l.16-146.05,4.92-5.21v150.22Z"/>
    </g>
    <path class="st1" d="M332.7,150.16c0-39.56-36.25-43.11-36.25-43.11h-87.3v140.67h31.78v-49.11h29.78l26.67,49.11h35.33l-29.56-51.33s29.56-6.67,29.56-46.22ZM286.37,171.49h-45.89v-38.22h44s17.05.22,17.05,18.22-15.16,20-15.16,20Z"/>
    <path class="st0" d="M334.81,152.82h31.11s2.11-18.78,19.44-19.56,18.22,12.22,18.22,16.33-.67,10.44-5.56,16.11-64,57.44-64,57.44v24.56h87.22l17.11-27.89-56.33-.11,37.11-34s16.11-13.22,15.67-37.89-14.22-42.22-48.61-42.33-51.94,19.89-51.39,47.33Z"/>
    <path class="st1" d="M438.37,219.82h64.78s14.44-1.33,14.44-12.67-12.56-11.78-44.33-19.11-36.78-25.89-36.78-40.56,11.67-40.33,36-40.56,73.89,0,73.89,0v28.67h-69s-8.44,1-8.44,12.11,14.67,12.57,33.56,15.62,46.89,7.83,46.89,40.72-24.56,43.67-40.89,43.67-87.22,0-87.22,0l17.11-27.89Z"/>
  </g>
  <g>
    <path class="st1" d="M64.71,345.64v-59.5h29.07c7.48,0,13.1,1.42,16.87,4.25,3.77,2.83,5.65,6.57,5.65,11.22,0,3.12-.77,5.82-2.29,8.12s-3.64,4.07-6.33,5.31c-2.69,1.25-5.74,1.87-9.14,1.87l1.62-3.57c3.74,0,7.04.62,9.9,1.87,2.86,1.25,5.11,3.06,6.76,5.44,1.64,2.38,2.46,5.3,2.46,8.75,0,5.1-2.01,9.08-6.04,11.94-4.02,2.86-9.94,4.29-17.76,4.29h-30.77ZM78.4,335.27h16.15c3.51,0,6.21-.59,8.07-1.79,1.87-1.19,2.81-3.03,2.81-5.52s-.94-4.42-2.81-5.61c-1.87-1.19-4.56-1.79-8.07-1.79h-17.17v-10.03h14.7c3.34,0,5.91-.58,7.69-1.74,1.78-1.16,2.68-2.93,2.68-5.31s-.89-4.14-2.68-5.27c-1.79-1.13-4.35-1.7-7.69-1.7h-13.68v38.76Z"/>
    <path class="st1" d="M121.92,345.64l26.44-59.5h13.6l26.69,59.5h-14.45l-21.84-52.53h5.52l-21.84,52.53h-14.11ZM135.26,332.89l3.48-10.46h30.77l3.57,10.46h-37.82ZM138.15,281.29l11.22-12.24h11.73l11.22,12.24h-9.69l-11.82-10.12h8.84l-11.81,10.12h-9.69Z"/>
    <path class="st1" d="M207.17,345.64v-48.28h-19.04v-11.22h51.85v11.22h-19.04v48.28h-13.77Z"/>
    <path class="st1" d="M247.38,345.64v-59.5h13.85v59.5h-13.85Z"/>
    <path class="st1" d="M275.26,345.64v-59.5h11.39l25.33,41.99h-6.03l24.82-41.99h11.48v59.5h-12.84l-.17-39.7h2.55l-20.06,33.32h-6.12l-20.31-33.32h2.81v39.7h-12.83Z"/>
    <path class="st1" d="M370.12,334.59h32.38v11.05h-46.07v-59.5h44.96v11.05h-31.28v37.4ZM369.09,310.02h28.65v10.79h-28.65v-10.79Z"/>
    <path class="st1" d="M413.46,345.64v-59.5h11.39l35.11,42.84h-5.53v-42.84h13.6v59.5h-11.39l-35.1-42.84h5.52v42.84h-13.6Z"/>
    <path class="st1" d="M494.47,345.64v-48.28h-19.04v-11.22h51.85v11.22h-19.04v48.28h-13.77Z"/>
  </g>
</svg>